<svg width="124" height="109" viewBox="0 0 124 109" fill="none" xmlns="http://www.w3.org/2000/svg">
<g clip-path="url(#clip0_0_1)">
<path d="M27.6282 80.3542C28.7698 78.4991 29.3406 77.5716 30.276 77.2056C31.2115 76.8396 32.2602 77.1335 34.3575 77.7214L59.2701 84.7042C67.8941 87.1215 72.2061 88.3301 72.1828 90.6287C72.1595 92.9274 67.824 94.0484 59.1528 96.2905L24.4157 105.273C18.3031 106.853 15.2468 107.643 14.0435 106.014C12.8403 104.385 14.4947 101.696 17.8037 96.319L27.6282 80.3542Z" fill="#DD1D4A"/>
<path d="M24 10C24 4.47716 28.4772 0 34 0H114C119.523 0 124 4.47715 124 10V90C124 95.5228 119.523 100 114 100H34C28.4772 100 24 95.5228 24 90V10Z" fill="#DD1D4A"/>
<path d="M61.216 72.448C56.992 72.448 53.1093 71.4667 49.568 69.504C46.0693 67.5413 43.2747 64.8107 41.184 61.312C39.136 57.7707 38.112 53.8027 38.112 49.408C38.112 45.0133 39.136 41.0667 41.184 37.568C43.2747 34.0693 46.0693 31.3387 49.568 29.376C53.1093 27.4133 56.992 26.432 61.216 26.432C65.44 26.432 69.3013 27.4133 72.8 29.376C76.3413 31.3387 79.1147 34.0693 81.12 37.568C83.168 41.0667 84.192 45.0133 84.192 49.408C84.192 53.8027 83.168 57.7707 81.12 61.312C79.072 64.8107 76.2987 67.5413 72.8 69.504C69.3013 71.4667 65.44 72.448 61.216 72.448ZM61.216 62.464C64.8 62.464 67.6587 61.2693 69.792 58.88C71.968 56.4907 73.056 53.3333 73.056 49.408C73.056 45.44 71.968 42.2827 69.792 39.936C67.6587 37.5467 64.8 36.352 61.216 36.352C57.5893 36.352 54.688 37.5253 52.512 39.872C50.3787 42.2187 49.312 45.3973 49.312 49.408C49.312 53.376 50.3787 56.5547 52.512 58.944C54.688 61.2907 57.5893 62.464 61.216 62.464ZM104.681 25.472L103.401 56.128H94.1205L92.8405 25.472H104.681ZM98.9205 72.512C97.0005 72.512 95.4218 71.9573 94.1845 70.848C92.9898 69.696 92.3925 68.288 92.3925 66.624C92.3925 64.9173 92.9898 63.488 94.1845 62.336C95.4218 61.184 97.0005 60.608 98.9205 60.608C100.798 60.608 102.334 61.184 103.529 62.336C104.766 63.488 105.385 64.9173 105.385 66.624C105.385 68.288 104.766 69.696 103.529 70.848C102.334 71.9573 100.798 72.512 98.9205 72.512Z" fill="#FDFDFD"/>
</g>
<defs>
<clipPath id="clip0_0_1">
<rect width="123.715" height="108.337" fill="white" transform="translate(0.284836)"/>
</clipPath>
</defs>
</svg>
