<?xml version="1.0" standalone="no"?>
<!DOCTYPE svg PUBLIC "-//W3C//DTD SVG 20010904//EN"
 "http://www.w3.org/TR/2001/REC-SVG-20010904/DTD/svg10.dtd">
<svg version="1.0" xmlns="http://www.w3.org/2000/svg"
 width="512.000000pt" height="512.000000pt" viewBox="0 0 512.000000 512.000000"
 preserveAspectRatio="xMidYMid meet">

<g transform="translate(0.000000,512.000000) scale(0.100000,-0.100000)"
fill="#000000" stroke="none">
<path d="M1376 5104 c-72 -23 -149 -103 -172 -180 -55 -189 -169 -663 -164
-684 15 -63 80 -74 573 -92 477 -17 1104 9 1165 48 49 32 49 37 -43 394 -47
184 -93 352 -102 373 -24 55 -104 124 -166 142 -75 22 -1018 21 -1091 -1z
m1043 -157 c19 -7 43 -23 53 -37 10 -15 48 -143 87 -298 68 -268 69 -272 47
-277 -43 -10 -457 -25 -678 -25 -268 0 -679 18 -692 30 -5 5 20 124 59 280 60
239 71 275 96 300 16 16 39 31 52 33 12 2 229 5 482 5 333 1 469 -2 494 -11z"/>
<path d="M700 4404 c-141 -22 -258 -51 -318 -80 -125 -61 -121 -169 7 -234 97
-49 323 -99 589 -131 l102 -12 0 -212 c0 -307 9 -330 207 -542 l124 -132 -3
-63 -3 -62 -380 -205 c-209 -114 -401 -218 -426 -233 -119 -70 -228 -209 -276
-351 l-28 -82 -3 -889 c-3 -983 -5 -951 61 -1038 46 -60 109 -105 174 -124 52
-15 83 -15 402 0 962 45 1622 81 1801 96 105 9 123 14 207 54 94 46 231 128
409 247 144 96 148 105 139 326 -4 93 -11 196 -15 231 -14 106 -76 164 -173
164 -39 0 -72 -11 -164 -56 -63 -31 -116 -56 -118 -56 -2 0 125 221 283 490
237 406 290 492 311 497 31 8 1028 -21 1037 -29 3 -4 -182 -328 -412 -722
-290 -497 -424 -718 -438 -722 -12 -4 -61 -8 -109 -8 -81 -1 -91 -3 -108 -25
-27 -33 -25 -82 5 -110 22 -21 35 -23 133 -24 122 -2 164 12 219 75 17 19 223
365 459 769 415 709 430 736 430 786 0 58 -22 96 -73 126 -28 17 -78 20 -449
32 -674 22 -710 22 -763 -1 -57 -26 -93 -68 -161 -185 l-54 -93 -12 108 c-25
231 -122 419 -288 559 -99 83 -209 134 -483 222 -153 50 -242 84 -242 92 0 16
2 16 139 -3 106 -14 117 -14 158 1 25 10 55 31 71 53 25 33 27 43 32 165 l5
129 66 27 c82 32 109 55 109 93 0 18 -38 103 -95 212 l-95 183 0 109 0 110
163 18 c478 52 726 131 737 232 8 72 -34 120 -132 153 -75 24 -286 67 -380 76
-63 7 -68 6 -93 -19 -20 -21 -26 -34 -23 -63 4 -49 36 -70 123 -83 147 -21
247 -43 233 -51 -20 -11 -255 -55 -393 -73 -501 -66 -1251 -74 -1790 -20 -178
18 -432 57 -530 83 l-70 18 55 11 c30 7 100 18 155 26 85 13 103 19 123 41 30
36 28 71 -7 106 -33 33 -31 32 -161 13z m1830 -606 l0 -121 80 -154 79 -153
-33 -14 c-18 -7 -42 -17 -54 -20 -12 -4 -31 -19 -42 -33 -18 -23 -20 -40 -20
-164 l0 -139 -27 6 c-16 2 -89 13 -163 23 -146 20 -179 16 -198 -22 -7 -13
-13 -104 -14 -227 -4 -230 -12 -264 -70 -300 -27 -18 -44 -20 -96 -17 -164 12
-309 150 -383 366 -23 67 -25 260 -5 644 15 287 17 294 87 329 85 44 142 12
216 -122 62 -112 91 -134 146 -108 29 14 40 33 102 176 l69 161 101 4 c55 1
128 4 163 5 l62 2 0 -122z m-1001 -1220 c112 -177 302 -286 481 -276 166 10
270 120 287 305 8 89 26 81 88 -42 116 -228 158 -435 180 -867 l7 -138 -576 0
-576 0 0 33 c0 17 -5 106 -10 197 -22 345 -69 548 -176 762 l-43 87 122 65
121 64 26 -61 c15 -34 45 -92 69 -129z m1260 -75 c123 -59 226 -159 288 -278
64 -125 73 -171 80 -412 l6 -211 -94 -161 -94 -162 -5 120 c-6 155 -6 155
-139 159 l-98 4 -7 156 c-8 188 -29 398 -51 507 -13 67 -82 285 -109 347 -7
15 -1 15 61 -3 37 -12 110 -41 162 -66z m-1694 -35 c100 -212 141 -410 152
-730 l6 -178 -97 0 c-94 0 -98 -1 -127 -29 l-29 -29 0 -216 0 -216 -276 0
-275 0 3 488 c4 476 4 488 26 547 30 79 79 151 138 205 36 32 411 248 432 250
2 0 23 -42 47 -92z m152 -1127 c-3 -63 28 -101 80 -101 53 0 83 37 83 100 l0
50 575 0 575 0 0 -41 c0 -83 56 -129 125 -103 24 9 45 58 45 104 l0 40 40 0
40 0 0 -145 c0 -141 -1 -145 -19 -135 -42 22 -93 10 -269 -66 -97 -41 -189
-87 -204 -101 -15 -14 -50 -63 -77 -108 l-51 -82 -255 -6 c-140 -4 -370 -10
-510 -14 l-255 -6 0 331 0 332 40 0 39 0 -2 -49z m2067 -478 c3 -60 9 -145 12
-189 l5 -81 -139 -90 c-202 -132 -341 -210 -392 -222 -60 -14 -597 -45 -1774
-101 -313 -15 -437 -18 -460 -10 -38 12 -90 64 -105 103 -7 18 -11 142 -11
333 l0 304 275 0 275 0 0 -137 c0 -149 8 -180 50 -200 39 -18 1195 11 1225 31
13 8 52 61 87 118 l65 103 137 59 c157 67 156 68 156 -27 0 -51 4 -62 29 -88
16 -16 38 -29 48 -29 10 0 124 52 253 115 129 63 240 114 247 115 7 0 13 -36
17 -107z"/>
<path d="M4095 3135 c-80 -16 -108 -24 -184 -54 -73 -30 -190 -100 -201 -122
-28 -52 8 -119 64 -119 15 0 57 18 93 40 241 145 535 145 776 0 89 -54 138
-53 162 2 18 45 7 76 -39 110 -60 45 -194 106 -283 129 -102 27 -292 34 -388
14z"/>
<path d="M4126 2875 c-81 -17 -205 -73 -241 -109 -33 -33 -33 -79 0 -111 13
-14 33 -25 44 -25 10 0 57 18 103 40 45 22 110 45 143 51 106 20 236 -6 338
-65 55 -32 81 -33 112 -1 33 32 34 84 3 112 -31 28 -131 77 -198 97 -78 24
-220 29 -304 11z"/>
<path d="M4185 2620 c-135 -28 -195 -93 -149 -158 28 -40 55 -43 134 -16 80
28 119 27 195 -7 50 -22 83 -15 109 23 22 30 20 60 -4 91 -40 50 -194 87 -285
67z"/>
</g>
</svg>
